<?xml version="1.0" encoding="UTF-8" standalone="no"?>
<!DOCTYPE svg PUBLIC "-//W3C//DTD SVG 1.1//EN" "http://www.w3.org/Graphics/SVG/1.1/DTD/svg11.dtd">
<svg width="100%" height="100%" viewBox="0 0 9712 14111" version="1.1" xmlns="http://www.w3.org/2000/svg" xmlns:xlink="http://www.w3.org/1999/xlink" xml:space="preserve" xmlns:serif="http://www.serif.com/" style="fill-rule:evenodd;clip-rule:evenodd;stroke-linejoin:round;stroke-miterlimit:2;">
    <g transform="matrix(1,0,0,1,-2207.19,0)">
        <g transform="matrix(0.882874,0,0,0.88189,0,0)">
            <path d="M4086,0L2500,1586L2500,14414L4086,16000L11914,16000L13500,14414L13500,1586L11914,0L4086,0Z" style="fill:rgb(246,246,246);fill-rule:nonzero;"/>
        </g>
        <g transform="matrix(0.882874,0,0,0.88189,0,0)">
            <path d="M10500,13000L9500,13000L9500,10000L10500,10000L10500,13000ZM10500,9000L9500,9000L9500,8000L10500,8000L10500,9000ZM10500,7000L9500,7000L9500,6000L10500,6000L10500,7000ZM8500,13000L7500,13000L7500,12000L8500,12000L8500,13000ZM6500,13000L5500,13000L5500,12000L6500,12000L6500,13000ZM8500,11000L7500,11000L7500,10000L8500,10000L8500,11000ZM6500,11000L5500,11000L5500,10000L6500,10000L6500,11000ZM8500,9000L7500,9000L7500,8000L8500,8000L8500,9000ZM6500,9000L5500,9000L5500,8000L6500,8000L6500,9000ZM8500,7000L7500,7000L7500,6000L8500,6000L8500,7000ZM6500,7000L5500,7000L5500,6000L6500,6000L6500,7000ZM10500,5000L5500,5000L5500,3000L10500,3000L10500,5000ZM11500,13586L11086,14000L4914,14000L4500,13586L4500,2414L4914,2000L11086,2000L11500,2414L11500,13586ZM11500,1000L4500,1000L3500,2000L3500,14000L4500,15000L11500,15000L12500,14000L12500,2000L11500,1000Z" style="fill:rgb(66,66,66);fill-rule:nonzero;"/>
        </g>
        <g transform="matrix(0.882874,0,0,0.88189,0,0)">
            <path d="M10500,5000L5500,5000L5500,3000L10500,3000L10500,5000ZM10500,7000L9500,7000L9500,6000L10500,6000L10500,7000ZM10500,9000L9500,9000L9500,8000L10500,8000L10500,9000ZM10500,13000L9500,13000L9500,10000L10500,10000L10500,13000ZM8500,7000L7500,7000L7500,6000L8500,6000L8500,7000ZM8500,9000L7500,9000L7500,8000L8500,8000L8500,9000ZM8500,11000L7500,11000L7500,10000L8500,10000L8500,11000ZM8500,13000L7500,13000L7500,12000L8500,12000L8500,13000ZM6500,7000L5500,7000L5500,6000L6500,6000L6500,7000ZM6500,9000L5500,9000L5500,8000L6500,8000L6500,9000ZM6500,11000L5500,11000L5500,10000L6500,10000L6500,11000ZM6500,13000L5500,13000L5500,12000L6500,12000L6500,13000ZM11086,2000L4914,2000L4500,2414L4500,13586L4914,14000L11086,14000L11500,13586L11500,2414L11086,2000Z" style="fill:rgb(240,239,241);fill-rule:nonzero;"/>
        </g>
    </g>
</svg>
