<?xml version="1.0" encoding="UTF-8" standalone="no"?>
<!DOCTYPE svg PUBLIC "-//W3C//DTD SVG 1.1//EN" "http://www.w3.org/Graphics/SVG/1.1/DTD/svg11.dtd">
<svg width="100%" height="100%" viewBox="0 0 14127 14111" version="1.1" xmlns="http://www.w3.org/2000/svg" xmlns:xlink="http://www.w3.org/1999/xlink" xml:space="preserve" xmlns:serif="http://www.serif.com/" style="fill-rule:evenodd;clip-rule:evenodd;stroke-linejoin:round;stroke-miterlimit:2;">
    <g transform="matrix(1,0,0,1,0.882874,0)">
        <g transform="matrix(0.882874,0,0,0.88189,0,0)">
            <path d="M16000,9000L16000,10200L13677,16000L2000,16000L1951,15997L1902,15993L1853,15988L1804,15982L1756,15975L1707,15967L1659,15958L1611,15948L1564,15937L1516,15925L1469,15913L1422,15899L1330,15869L1238,15835L1193,15816L1149,15797L1104,15777L1060,15756L1017,15734L974,15711L931,15687L847,15637L765,15583L725,15555L686,15526L646,15496L570,15434L535,15398L501,15361L468,15324L436,15286L405,15247L375,15207L346,15167L318,15126L266,15042L242,14999L218,14955L196,14911L175,14867L155,14822L119,14730L102,14684L87,14637L73,14589L60,14542L38,14446L29,14397L21,14348L14,14299L9,14250L4,14200L1,14150L-1,14050L0,14000L0,5000L-1,4941L0,4891L2,4842L5,4793L9,4744L15,4695L22,4647L30,4599L39,4552L49,4505L61,4458L73,4412L87,4366L102,4321L118,4276L135,4232L153,4188L172,4145L192,4102L213,4060L235,4019L258,3978L282,3937L307,3898L333,3858L359,3820L387,3782L416,3745L445,3709L475,3673L506,3638L538,3604L604,3538L638,3506L673,3475L709,3445L745,3416L782,3387L820,3359L858,3333L898,3307L937,3282L978,3258L1019,3235L1060,3213L1102,3192L1145,3172L1188,3153L1232,3135L1276,3118L1321,3102L1366,3087L1412,3073L1458,3061L1505,3049L1552,3039L1599,3030L1647,3022L1695,3015L1744,3009L1793,3005L1842,3002L1891,3000L1941,2999L2000,3000L4486,3000L3607,2121L5729,0L10246,4518L10000,4765L10116,5000L13092,5000L13142,5002L13191,5005L13241,5010L13289,5015L13338,5022L13386,5030L13482,5050L13529,5062L13575,5074L13621,5088L13667,5103L13712,5119L13757,5136L13845,5174L13888,5194L13930,5215L13972,5237L14054,5285L14094,5310L14134,5336L14172,5363L14210,5391L14248,5420L14285,5449L14321,5480L14356,5511L14390,5543L14424,5576L14457,5610L14489,5644L14520,5679L14551,5715L14580,5752L14609,5790L14637,5828L14664,5866L14690,5906L14715,5946L14763,6028L14785,6070L14806,6112L14826,6155L14864,6243L14881,6288L14897,6333L14912,6379L14926,6425L14938,6471L14950,6518L14970,6614L14978,6662L14985,6711L14990,6759L14995,6809L14998,6858L15000,6908L15000,9000L16000,9000Z" style="fill:white;fill-rule:nonzero;"/>
        </g>
        <g transform="matrix(0.882874,0,0,0.88189,0,0)">
            <path d="M2000,15016L1959,15017L1934,15017L1910,15016L1885,15014L1861,15012L1813,15006L1790,15002L1766,14997L1743,14992L1697,14980L1675,14973L1652,14966L1608,14950L1587,14941L1565,14932L1544,14922L1524,14911L1503,14900L1483,14889L1443,14865L1405,14839L1386,14825L1350,14797L1332,14782L1315,14767L1298,14751L1282,14735L1250,14701L1235,14684L1205,14648L1191,14630L1178,14612L1164,14593L1152,14573L1139,14554L1127,14534L1116,14513L1105,14493L1075,14430L1067,14408L1058,14386L1050,14364L1043,14342L1036,14319L1024,14273L1019,14250L1015,14227L1007,14179L1005,14155L1002,14131L1001,14107L1000,14082L1000,8959L1055,9013L1111,9066L1168,9118L1226,9168L1285,9217L1345,9265L1407,9312L1469,9357L1532,9400L1596,9443L1661,9483L1727,9523L1794,9561L1862,9597L1931,9632L2000,9666L2000,15016ZM14000,10031L14000,7031L13999,6985L13996,6940L13992,6897L13986,6855L13979,6814L13970,6775L13959,6737L13947,6701L13934,6666L13920,6632L13904,6599L13887,6567L13870,6537L13851,6508L13831,6480L13811,6453L13789,6427L13767,6402L13721,6356L13696,6334L13672,6314L13647,6294L13621,6275L13596,6257L13570,6240L13543,6224L13517,6209L13491,6195L13464,6181L13438,6168L13412,6156L13385,6145L13360,6134L13334,6124L13309,6115L13260,6098L13213,6084L13168,6072L13127,6062L13090,6053L13057,6047L13005,6038L12975,6033L12970,6032L12970,6031L13000,6031L9500,6031L9244,5520L8578,6186L9000,7031L13000,7031L13000,10031L4000,10031L2000,15031L13000,15031L15000,10031L14000,10031Z" style="fill:rgb(220,182,122);fill-rule:nonzero;"/>
        </g>
        <g transform="matrix(0.882874,0,0,0.88189,0,0)">
            <path d="M8832,4518L5732,7618L5024,6911L6924,5011L3462,5011L3423,5013L3385,5015L3348,5019L3310,5023L3273,5028L3199,5042L3163,5050L3091,5068L3021,5090L2986,5103L2952,5116L2918,5130L2885,5144L2852,5160L2820,5176L2787,5193L2725,5229L2694,5249L2634,5289L2576,5333L2548,5355L2467,5427L2441,5452L2416,5478L2344,5559L2322,5587L2278,5645L2238,5705L2218,5736L2182,5798L2165,5831L2149,5863L2133,5896L2119,5929L2105,5963L2092,5997L2079,6032L2057,6102L2039,6174L2031,6210L2017,6284L2012,6321L2008,6359L2004,6396L2002,6434L2000,6473L2000,6549L2002,6588L2004,6626L2008,6663L2012,6701L2017,6738L2031,6812L2039,6848L2057,6920L2079,6990L2092,7025L2105,7059L2119,7093L2133,7126L2149,7159L2165,7191L2182,7224L2218,7286L2238,7317L2278,7377L2322,7435L2344,7463L2416,7544L2441,7570L2467,7595L2548,7667L2576,7689L2634,7733L2694,7773L2725,7793L2787,7829L2820,7846L2852,7862L2885,7878L2918,7892L2952,7906L2986,7919L3021,7932L3091,7954L3163,7972L3199,7980L3273,7994L3310,7999L3348,8003L3385,8007L3423,8009L3462,8011L3500,8011L3500,9011L3436,9010L3372,9008L3309,9004L3246,8998L3183,8991L3121,8982L3060,8972L2999,8960L2938,8947L2878,8932L2760,8898L2702,8879L2644,8858L2587,8836L2531,8813L2475,8789L2420,8763L2366,8736L2312,8707L2260,8678L2208,8647L2157,8615L2106,8582L2008,8512L1960,8475L1914,8437L1868,8398L1823,8358L1779,8317L1736,8275L1694,8232L1653,8188L1613,8143L1574,8097L1536,8051L1499,8003L1429,7905L1396,7854L1364,7803L1333,7751L1304,7699L1275,7645L1248,7591L1222,7536L1198,7480L1175,7424L1153,7367L1132,7309L1113,7251L1079,7133L1064,7073L1051,7012L1039,6951L1029,6890L1020,6828L1013,6765L1007,6702L1003,6639L1001,6575L1000,6511L1001,6447L1003,6383L1007,6320L1013,6257L1020,6194L1029,6132L1039,6071L1051,6010L1064,5949L1079,5889L1113,5771L1132,5713L1153,5655L1175,5598L1198,5542L1222,5486L1248,5431L1275,5377L1304,5323L1333,5271L1364,5219L1396,5168L1429,5117L1499,5019L1536,4971L1574,4925L1613,4879L1653,4834L1694,4790L1736,4747L1779,4705L1823,4664L1868,4624L1914,4585L1960,4547L2008,4510L2106,4440L2157,4407L2208,4375L2260,4344L2312,4315L2366,4286L2420,4259L2475,4233L2531,4209L2587,4186L2644,4164L2702,4143L2760,4124L2878,4090L2938,4075L2999,4062L3060,4050L3121,4040L3183,4031L3246,4024L3309,4018L3372,4014L3436,4012L3500,4011L6918,4011L5018,2111L5726,1404L8832,4518Z" style="fill:rgb(0,83,156);fill-rule:nonzero;"/>
        </g>
    </g>
</svg>
