<?xml version="1.0" encoding="UTF-8" standalone="no"?>
<!DOCTYPE svg PUBLIC "-//W3C//DTD SVG 1.1//EN" "http://www.w3.org/Graphics/SVG/1.1/DTD/svg11.dtd">
<svg width="100%" height="100%" viewBox="0 0 12361 12347" version="1.1" xmlns="http://www.w3.org/2000/svg" xmlns:xlink="http://www.w3.org/1999/xlink" xml:space="preserve" xmlns:serif="http://www.serif.com/" style="fill-rule:evenodd;clip-rule:evenodd;stroke-linejoin:round;stroke-miterlimit:2;">
    <g transform="matrix(1,0,0,1,-882.874,-881.89)">
        <g transform="matrix(0.882874,0,0,0.88189,0,0)">
            <path d="M15000,15000L1000,15000L1000,1000L13000,1000L15000,3000L15000,15000Z" style="fill:rgb(246,246,246);fill-rule:nonzero;"/>
        </g>
        <g transform="matrix(0.882874,0,0,0.88189,0,0)">
            <path d="M14000,4000L14000,14000L2000,14000L2000,2000L5000,2000L5000,7000L11000,7000L11000,2000L12000,2000L14000,4000Z" style="fill:rgb(0,83,156);fill-rule:nonzero;"/>
        </g>
        <g transform="matrix(0.882874,0,0,0.88189,0,0)">
            <rect x="8000" y="2000" width="2000" height="3000" style="fill:rgb(0,83,156);"/>
        </g>
        <g transform="matrix(0.882874,0,0,0.88189,0,0)">
            <path d="M11000,2000L11000,7000L5000,7000L5000,2000L8000,2000L8000,5000L10000,5000L10000,2000L11000,2000Z" style="fill:rgb(240,239,241);fill-rule:nonzero;"/>
        </g>
    </g>
</svg>
