<?xml version="1.0" encoding="UTF-8" standalone="no"?>
<!DOCTYPE svg PUBLIC "-//W3C//DTD SVG 1.1//EN" "http://www.w3.org/Graphics/SVG/1.1/DTD/svg11.dtd">
<svg width="100%" height="100%" viewBox="0 0 13420 13052" version="1.1" xmlns="http://www.w3.org/2000/svg" xmlns:xlink="http://www.w3.org/1999/xlink" xml:space="preserve" xmlns:serif="http://www.serif.com/" style="fill-rule:evenodd;clip-rule:evenodd;stroke-linejoin:round;stroke-miterlimit:2;">
    <g transform="matrix(1,0,0,1,0,-352.756)">
        <g transform="matrix(0.882874,0,0,0.88189,0,0)">
            <path d="M12048,4000L8445,4000L9574,2847L7578,858L6400,2004L6400,400L3600,400L3600,2004L2487,862L539,2847L1685,4000L0,4000L0,6800L1685,6800L523,7938L2487,9909L3600,8764L3600,10400L5600,10400L5600,13599L5601,13648L5605,13742L5615,13834L5621,13879L5629,13923L5637,13966L5647,14009L5657,14051L5681,14133L5695,14173L5709,14212L5741,14288L5758,14325L5776,14361L5795,14396L5815,14431L5835,14465L5879,14531L5925,14593L5950,14624L5974,14653L6000,14682L6026,14710L6053,14737L6081,14764L6109,14789L6138,14814L6167,14838L6197,14862L6227,14885L6258,14906L6289,14928L6320,14948L6353,14968L6385,14986L6451,15022L6519,15054L6553,15069L6587,15083L6657,15109L6693,15120L6728,15131L6800,15151L6872,15167L6908,15174L6944,15180L6981,15185L7017,15190L7054,15193L7090,15196L7127,15198L7163,15200L13599,15200L13648,15199L13695,15198L13742,15195L13789,15191L13879,15179L13923,15172L13967,15163L14051,15143L14133,15119L14173,15105L14212,15091L14288,15059L14325,15042L14361,15024L14396,15005L14431,14985L14465,14964L14498,14943L14531,14921L14563,14898L14594,14875L14624,14850L14682,14800L14710,14773L14764,14719L14789,14691L14839,14633L14885,14573L14907,14542L14928,14511L14968,14447L15022,14348L15054,14280L15069,14246L15083,14212L15109,14142L15120,14106L15131,14071L15151,13999L15167,13927L15174,13891L15180,13854L15190,13782L15194,13745L15196,13709L15199,13672L15200,13636L15200,6844L12048,4000Z" style="fill:white;fill-rule:nonzero;"/>
        </g>
        <g transform="matrix(0.882874,0,0,0.88189,0,0)">
            <path d="M11711,4800L10000,4800L10000,5600L11200,5600L11200,8000L13600,8000L13600,13600L7200,13600L7200,9544L6400,8764L6400,13636L6402,13672L6405,13707L6409,13740L6413,13772L6419,13804L6425,13834L6441,13892L6450,13919L6460,13945L6471,13970L6482,13994L6494,14018L6520,14062L6534,14082L6549,14102L6563,14121L6579,14139L6594,14157L6611,14173L6627,14189L6644,14204L6678,14232L6696,14245L6714,14257L6731,14269L6749,14280L6785,14300L6804,14309L6822,14317L6857,14333L6893,14346L6927,14358L6960,14367L6992,14375L7022,14382L7051,14387L7076,14392L7100,14395L7138,14398L7162,14400L13571,14400L13608,14399L13644,14398L13679,14395L13712,14391L13745,14386L13776,14380L13807,14373L13836,14366L13865,14357L13919,14337L13945,14326L13993,14302L14016,14289L14038,14275L14059,14261L14080,14246L14118,14214L14136,14198L14153,14181L14185,14147L14200,14129L14228,14093L14240,14074L14253,14056L14275,14018L14285,14000L14295,13981L14304,13962L14321,13925L14336,13888L14349,13853L14359,13818L14369,13785L14376,13754L14383,13724L14388,13697L14392,13673L14397,13634L14399,13608L14400,13599L14400,7199L11711,4800Z" style="fill:rgb(101,101,101);fill-rule:nonzero;"/>
        </g>
        <g transform="matrix(0.882874,0,0,0.88189,0,0)">
            <path d="M11200,8000L11200,5600L10000,5600L10000,6800L8444,6800L9590,7938L7578,9913L7200,9544L7200,13600L13600,13600L13600,8000L11200,8000Z" style="fill:white;fill-rule:nonzero;"/>
        </g>
        <g transform="matrix(0.882874,0,0,0.88189,0,0)">
            <path d="M5665,5984L4465,5984L4465,4784L5665,4784L5665,5984ZM9265,4784L6514,4784L8459,2839L7610,1990L5665,3935L5665,1184L4465,1184L4465,3935L2520,1990L1671,2839L3616,4784L865,4784L865,5984L3616,5984L1671,7930L2520,8778L4465,6833L4465,9584L5665,9584L5665,6833L7610,8778L8459,7930L6514,5984L9265,5984L9265,4784Z" style="fill:rgb(194,125,26);fill-rule:nonzero;"/>
        </g>
    </g>
</svg>
